<svg width="166" height="33" viewBox="0 0 166 33" fill="none" xmlns="http://www.w3.org/2000/svg">
<path d="M13.6862 26.2037C14.3384 26.2037 14.9576 26.143 15.5402 26.0074C16.1309 25.8718 16.6554 25.6589 17.0978 25.3426C17.5402 25.0393 17.9062 24.623 18.173 24.0925C18.4398 23.568 18.5675 22.8864 18.5675 22.0622C18.5675 20.4482 18.132 19.3016 17.2665 18.6058C16.3988 17.9195 15.2415 17.5781 13.8185 17.5781H6.63046V26.2037H13.6862ZM13.3213 12.8705C14.4923 12.8705 15.4615 12.5803 16.2301 11.9915C16.9906 11.4135 17.36 10.456 17.36 9.14292C17.36 8.415 17.2369 7.81198 16.9906 7.34454C16.7363 6.87711 16.3988 6.51077 15.9724 6.25505C15.5493 5.98862 15.0716 5.80427 14.5163 5.70555C13.9724 5.59374 13.4011 5.55092 12.8162 5.55092H6.63046V12.8705H13.3213ZM14.1765 0.215271C15.6121 0.215271 16.9085 0.344916 18.0932 0.612531C19.2711 0.87301 20.2767 1.30833 21.1262 1.90541C21.9631 2.5013 22.6176 3.29463 23.0863 4.29373C23.5435 5.27855 23.7738 6.51077 23.7738 7.96898C23.7738 9.54612 23.4306 10.8628 22.7442 11.9154C22.0532 12.9668 21.0373 13.8292 19.6804 14.4988C21.5287 15.0531 22.897 16.0295 23.8046 17.4164C24.7168 18.8127 25.1626 20.485 25.1626 22.444C25.1626 24.033 24.8707 25.3997 24.2892 26.5498C23.7008 27.7142 22.9004 28.6586 21.9141 29.3865C20.9198 30.1216 19.7773 30.6604 18.498 31.0112C17.2323 31.3621 15.9188 31.5382 14.5733 31.5382H0.0194092V0.215271H14.1765Z" fill="#A7AAB4"/>
<path d="M41.4497 14.1836C40.7393 13.3641 39.5375 12.9205 38.0712 12.9205C37.1168 12.9205 36.3266 13.0882 35.6949 13.4295C35.0769 13.7661 34.5695 14.186 34.183 14.6796C33.7976 15.1815 33.5342 15.7108 33.3814 16.277C33.2286 16.8289 33.1374 17.3296 33.1089 17.772H42.8259C42.6834 16.183 42.1623 15.0091 41.4497 14.1836ZM34.5878 26.099C35.4817 27.0101 36.7747 27.4692 38.4497 27.4692C39.6538 27.4692 40.6948 27.1517 41.5683 26.5177C42.4337 25.8861 42.9605 25.2094 43.1646 24.5076H48.4233C47.5784 27.2373 46.2957 29.1867 44.5454 30.3595C42.8168 31.5382 40.7074 32.1257 38.2502 32.1257C36.5376 32.1257 34.996 31.8355 33.6129 31.267C32.2298 30.6901 31.0736 29.8813 30.101 28.8275C29.1534 27.769 28.418 26.5177 27.8935 25.0488C27.3747 23.587 27.1124 21.9683 27.1124 20.2139C27.1124 18.5178 27.3849 16.9335 27.9151 15.4694C28.4579 14.0005 29.207 12.7326 30.1922 11.6692C31.1808 10.6 32.3518 9.75667 33.7155 9.14057C35.0804 8.52564 36.5843 8.21759 38.2502 8.21759C40.0894 8.21759 41.7005 8.5863 43.0813 9.3392C44.4576 10.0802 45.5853 11.0852 46.4724 12.3436C47.3583 13.6008 47.9889 15.0376 48.3834 16.6481C48.7734 18.2573 48.9113 19.9379 48.7985 21.6983H33.1089C33.1089 23.4907 33.6904 25.188 34.5878 26.099Z" fill="#A7AAB4"/>
<path d="M57.2807 0.215271V12.026H57.4176C58.1758 10.7117 59.1347 9.75665 60.3137 9.16432C61.4905 8.56725 62.6387 8.27227 63.7572 8.27227C65.3524 8.27227 66.6591 8.49112 67.6796 8.94191C68.7013 9.40102 69.5097 10.0219 70.1015 10.8295C70.6819 11.6335 71.0923 12.6148 71.3329 13.7709C71.569 14.9246 71.691 16.1973 71.691 17.6007V31.5382H65.6899V18.7319C65.6899 16.8645 65.4106 15.461 64.8541 14.5428C64.2966 13.6234 63.3068 13.1619 61.8793 13.1619C60.2647 13.1619 59.0971 13.6722 58.3742 14.6796C57.6376 15.687 57.2807 17.345 57.2807 19.6525V31.5382H51.282V0.215271H57.2807Z" fill="#A7AAB4"/>
<path d="M87.7087 21.0025C87.3369 21.1309 86.9253 21.2392 86.5012 21.3331C86.0633 21.4199 85.6061 21.4901 85.1317 21.552C84.662 21.6114 84.1785 21.6792 83.7099 21.7672C83.2629 21.8588 82.8159 21.973 82.3906 22.1217C81.9573 22.2692 81.5776 22.4654 81.2652 22.7128C80.9414 22.9638 80.6837 23.2778 80.4864 23.6548C80.2949 24.0331 80.1923 24.5243 80.1923 25.1047C80.1923 25.659 80.2949 26.1264 80.4864 26.5106C80.6837 26.8912 80.9414 27.1885 81.2801 27.4086C81.6176 27.6286 82.0132 27.7832 82.4533 27.8689C82.9003 27.9616 83.3621 27.9961 83.8353 27.9961C85.0097 27.9961 85.9151 27.7928 86.5605 27.3848C87.2024 26.9744 87.6859 26.4844 87.988 25.9135C88.2959 25.3426 88.4817 24.7669 88.5422 24.1865C88.6209 23.6025 88.6562 23.1315 88.6562 22.7782V20.4482C88.3974 20.6873 88.0929 20.8716 87.7087 21.0025ZM75.954 12.1771C76.5618 11.2125 77.3451 10.4311 78.2984 9.84707C79.2516 9.25713 80.3166 8.84203 81.5138 8.59344C82.7065 8.33772 83.8992 8.21759 85.1101 8.21759C86.199 8.21759 87.3005 8.29609 88.435 8.45785C89.5513 8.61842 90.5718 8.93361 91.4977 9.40342C92.4224 9.87562 93.1761 10.5215 93.7599 11.3647C94.3516 12.1866 94.6515 13.2999 94.6515 14.6796V26.4999C94.6515 27.5275 94.7108 28.504 94.8157 29.4389C94.9343 30.3821 95.241 31.0898 95.5306 31.5536L89.4304 31.5382C89.2514 31.267 89.1032 30.8424 89.0336 30.4725C88.9629 30.1109 88.9139 29.7386 88.8865 29.3568C87.9367 30.3821 86.8227 31.1029 85.5251 31.5144C84.2378 31.92 82.9254 32.1257 81.5777 32.1257C80.5446 32.1257 79.5822 31.989 78.6815 31.7249C77.7944 31.4609 77.0065 31.0517 76.3349 30.4986C75.6599 29.9349 75.1411 29.2355 74.7625 28.3886C74.3862 27.537 74.1924 26.5237 74.1924 25.3533C74.1924 24.0616 74.4147 22.9983 74.8537 22.1657C75.2813 21.3331 75.8366 20.6635 76.531 20.1675C77.214 19.668 77.9985 19.2921 78.8867 19.0471C79.767 18.7997 80.6609 18.5951 81.5469 18.4512C82.4465 18.3073 83.3222 18.1907 84.1968 18.1003C85.0736 18.0111 85.833 17.8839 86.5114 17.7054C87.1807 17.5318 87.7166 17.2677 88.11 16.9335C88.4966 16.5981 88.6824 16.1105 88.6562 15.461C88.6562 14.7902 88.5422 14.255 88.3358 13.8554C88.1283 13.4617 87.8478 13.1584 87.5046 12.9371C87.1522 12.7159 86.7554 12.5708 86.2982 12.4935C85.833 12.4233 85.3404 12.3841 84.8148 12.3841C83.646 12.3841 82.7213 12.6552 82.0657 13.1762C81.3918 13.7126 81.0041 14.5952 80.8844 15.8274H74.8936C74.9803 14.3561 75.3269 13.1417 75.954 12.1771Z" fill="#A7AAB4"/>
<path d="M103.608 8.8646V12.026H103.742C104.498 10.7117 105.472 9.75665 106.683 9.16433C107.884 8.56725 109.128 8.27228 110.389 8.27228C111.991 8.27228 113.306 8.49113 114.322 8.94191C115.356 9.40102 116.16 10.0219 116.742 10.8295C117.34 11.6335 117.75 12.6148 117.99 13.7709C118.232 14.9246 118.351 16.1973 118.351 17.6008V31.5382H112.348V18.7319C112.348 16.8645 112.066 15.461 111.507 14.5428C110.939 13.6234 109.959 13.0335 108.521 13.0335C106.897 13.0335 105.713 13.6722 104.986 14.6796C104.254 15.687 103.891 17.345 103.891 19.6525V31.5382H97.9526V8.8646H103.608Z" fill="#A7AAB4"/>
<path d="M131.64 12.9205C130.68 12.9205 129.887 13.1417 129.25 13.6008C128.599 14.0587 128.067 14.6392 127.661 15.3588C127.254 16.0736 126.973 16.8645 126.798 17.7304C126.635 18.5951 126.544 19.4515 126.544 20.3031C126.544 21.1262 126.635 21.9599 126.798 22.8115C126.973 23.6584 127.241 24.4232 127.619 25.1202C128.003 25.8029 128.514 26.3643 129.16 26.8079C129.802 27.2492 130.583 27.4692 131.51 27.4692C132.947 27.4692 134.049 27.0506 134.821 26.2216C135.589 25.3878 136.065 24.2674 136.266 22.8639H142.033C141.637 25.8719 140.515 28.1698 138.669 29.7541C136.816 31.3277 134.443 32.1257 131.554 32.1257C129.921 32.1257 128.438 31.8355 127.07 31.267C125.704 30.6901 124.544 29.8956 123.588 28.8703C122.633 27.8427 121.892 26.6212 121.349 25.201C120.819 23.7785 120.552 22.2168 120.552 20.5219C120.552 18.7664 120.799 17.131 121.291 15.6192C121.78 14.1135 122.503 12.8087 123.466 11.7144C124.421 10.613 125.588 9.75667 126.969 9.14057C128.344 8.52564 129.916 8.21759 131.68 8.21759C132.97 8.21759 134.21 8.39957 135.407 8.73974C136.595 9.08704 137.663 9.62346 138.601 10.343C139.54 11.0579 140.31 11.9487 140.899 13.0109C141.482 14.073 141.815 15.3457 141.907 16.8003H136.051C135.663 14.2122 134.193 12.9205 131.64 12.9205Z" fill="#A7AAB4"/>
<path d="M31.8877 2.31696H44.0596V5.40821H31.8877V2.31696Z" fill="#A7AAB4"/>
<path d="M157.948 14.1836C157.229 13.3641 156.018 12.9205 154.569 12.9205C153.616 12.9205 152.824 13.0882 152.181 13.4295C151.562 13.7661 150.996 14.186 150.616 14.6796C150.237 15.1815 149.964 15.7108 149.806 16.277C149.664 16.8289 149.565 17.3296 149.539 17.772H159.329C159.169 16.183 158.661 15.0091 157.948 14.1836ZM151.012 26.099C151.909 27.0101 153.264 27.4692 154.951 27.4692C156.153 27.4692 157.192 27.1517 158.06 26.5177C158.927 25.8861 159.466 25.2094 159.657 24.5076H164.916C164.076 27.2373 162.785 29.1867 161.046 30.3595C159.311 31.5382 157.21 32.1257 154.744 32.1257C153.027 32.1257 151.479 31.8355 150.107 31.267C148.726 30.6901 147.568 29.8813 146.6 28.8275C145.643 27.769 144.908 26.5177 144.386 25.0488C143.867 23.587 143.61 21.9683 143.61 20.2139C143.61 18.5178 143.876 16.9335 144.408 15.4694C144.946 14.0005 145.711 12.7326 146.691 11.6692C147.684 10.6 148.844 9.75667 150.205 9.14057C151.571 8.52564 153.087 8.21759 154.744 8.21759C156.581 8.21759 158.199 8.5863 159.566 9.3392C160.946 10.0802 162.079 11.0852 162.959 12.3436C163.845 13.6008 164.483 15.0376 164.874 16.6481C165.259 18.2573 165.407 19.9379 165.297 21.6983H149.539C149.539 23.4907 150.112 25.188 151.012 26.099Z" fill="#A7AAB4"/>
</svg>
