<svg width="135" height="33" viewBox="0 0 135 33" fill="none" xmlns="http://www.w3.org/2000/svg">
<path d="M41.6107 13.5074C43.1422 13.5074 44.3837 12.3006 44.3837 10.812C44.3837 9.32344 43.1422 8.11663 41.6107 8.11663C40.079 8.11663 38.8375 9.32344 38.8375 10.812C38.8375 12.3006 40.079 13.5074 41.6107 13.5074ZM133.13 22.7167C132.708 22.4283 132.382 22.3807 132.112 22.9405C127.455 32.7425 119.606 27.8512 120.386 28.2817C122.127 27.5077 126.705 23.9394 126.013 19.0126C125.593 16.0015 122.933 14.6659 120.11 15.1442C115.183 15.9788 113.37 21.1434 114.293 25.7161C114.454 26.5012 114.743 27.149 115.031 27.7833C109.462 32.1835 107.251 23.8441 107 22.8477C106.99 22.7945 111.3 19.3038 112.498 10.986C113.755 2.26854 110.893 0.681422 107.966 0.730889C102.551 0.822598 101.088 11.8171 103.053 20.9802C102.889 21.0218 102.122 21.4343 100.891 21.4804C100.005 18.7715 96.2194 16.397 95.2285 17.3118C92.7486 19.6011 95.8299 24.076 97.9978 24.4272C96.6955 32.2217 88.5507 30.2911 90.0669 20.5258C92.7193 15.74 94.7364 8.62353 94.3763 4.3274C94.2489 2.80628 93.0916 0.768407 90.474 0.869147C85.44 1.06285 84.8928 12.0604 85.4831 19.8658C85.4536 19.6736 85.1736 20.8141 83.1107 21.3813C82.6227 18.7493 78.2615 16.1075 77.2348 17.3777C75.3132 19.7549 78.6435 23.9932 80.2212 24.289C78.9189 32.0834 70.7742 30.1528 72.2905 20.3875C74.9427 15.6017 76.9598 8.48527 76.5997 4.18914C76.4723 2.66803 75.3152 0.630149 72.6974 0.730889C67.6635 0.924728 67.1162 11.9221 67.7065 19.7275C67.6768 19.5324 67.3902 20.7103 65.2431 21.2684C65.1711 17.8537 60.7941 16.2882 59.7426 17.3777C57.8688 19.3195 60.1717 23.3044 62.3024 24.289C61.0001 32.0834 52.8555 30.1528 54.3717 20.3875C57.0239 15.6017 59.0411 8.48527 58.681 4.18914C58.5536 2.66803 57.3964 0.630149 54.7787 0.730889C49.7447 0.924728 49.3397 12.475 49.93 20.2804C48.272 27.1834 42.7115 35.8042 43.4338 18.535C43.5051 17.3238 43.583 16.8636 42.9616 16.4102C42.4957 16.0575 41.4366 16.227 40.8579 16.2412C40.1542 16.2686 39.9778 16.6687 39.8223 17.2733C39.46 18.8347 39.395 20.3483 39.3433 22.4136C39.3092 23.3797 39.2294 23.8305 38.8468 25.1478C38.4641 26.465 36.2828 28.8722 35.0882 28.47C33.4313 27.916 33.9745 23.3707 34.2853 20.2476C34.5441 17.7794 33.7157 16.6712 31.5927 16.2681C30.3499 16.0164 29.5948 16.0551 28.3006 15.6587C27.0767 15.2838 26.7997 13.034 24.1896 13.7838C22.7614 14.1941 23.6793 17.134 23.3363 19.3129C21.6492 30.0304 18.1387 30.3247 16.5101 25.1183C23.8448 7.66323 18.6319 0.781746 15.5809 0.781746C12.4026 0.781746 8.76957 2.90883 10.308 16.5195C9.55993 16.3075 9.32999 16.1932 8.51118 16.1932C3.88002 16.1932 0.724609 19.8312 0.724609 24.3188C0.724609 28.8064 3.88002 32.4443 8.51118 32.4443C11.2452 32.4443 13.1644 31.2362 14.6182 29.3672C15.5666 30.6871 16.7216 32.4647 18.8337 32.3847C25.1291 32.1465 26.9602 19.5981 27.1761 18.8982C27.8492 18.999 28.486 19.1898 29.1073 19.2905C30.1429 19.4417 30.218 19.8399 30.1946 20.852C29.9204 29.3862 31.541 32.3744 35.2172 32.3744C37.2655 32.3744 39.0913 30.4191 40.349 29.0207C41.2883 30.9046 42.7851 32.3169 44.7931 32.3744C49.6591 32.4918 51.5219 24.956 51.3522 25.9477C51.2189 26.7258 52.9307 32.3319 57.94 32.3523C64.1451 32.3775 65.2984 25.7469 65.4361 24.6363C65.4533 24.4152 65.4607 24.4384 65.4361 24.6363C65.4345 24.6568 65.4328 24.6788 65.4311 24.7037C67.401 24.3477 68.4176 23.3214 68.4176 23.3214C68.4176 23.3214 69.9993 32.4554 75.8587 32.3523C81.9429 32.2452 83.0903 26.2517 83.2412 25.0829C83.2609 24.8055 83.2728 24.838 83.2412 25.0829C83.2403 25.0944 83.2396 25.1046 83.2387 25.1172C85.5788 24.2899 86.1941 23.4596 86.1941 23.4596C86.1941 23.4596 87.4515 32.4121 93.6352 32.4904C99.1459 32.5603 101.188 27.0771 101.2 24.7819C102.13 24.7915 103.849 24.2462 103.808 24.215C103.808 24.215 105.827 32.0423 111.464 32.4443C114.11 32.633 116.096 30.9974 117.227 30.2511C119.887 32.3441 128.743 35.0173 134.335 25.8046C135.125 24.4825 133.428 22.9205 133.13 22.7167ZM8.28767 29.4051C5.58571 29.4051 3.85314 26.9775 3.85314 24.3599C3.85314 21.7423 5.44342 19.3147 8.14538 19.3147C9.36145 19.3147 10.0375 19.4447 10.9846 20.2451C11.1565 20.9025 11.643 22.4193 11.8799 23.1081C12.1971 24.0296 12.5745 24.8141 12.9551 25.668C12.4113 27.858 10.6293 29.4051 8.28767 29.4051ZM14.8719 20.3221C14.7596 20.1481 14.783 20.255 14.6573 20.0906C14.1621 18.7815 13.2075 15.8592 13.097 12.5399C12.972 8.78541 13.6161 4.38451 15.5147 4.38451C16.8011 4.38451 18.1683 13.3037 14.8719 20.3221ZM52.9164 16.4102C52.6115 14.182 52.5957 4.24931 55.0497 4.52276C56.4044 5.05606 54.1905 14.429 52.9164 16.4102ZM70.8352 16.4102C70.5303 14.182 70.5144 4.24931 72.9684 4.52276C74.3232 5.05606 72.1093 14.429 70.8352 16.4102ZM88.6118 16.5484C88.3067 14.3203 88.291 4.38756 90.7449 4.66102C92.0998 5.19432 89.8857 14.5672 88.6118 16.5484ZM108.237 3.94139C110.481 3.71545 110.388 13.2358 105.885 19.246C105.304 17.0738 104.414 4.68742 108.237 3.94139ZM117.667 24.4272C116.947 20.8901 118.809 18.567 120.728 18.3123C121.399 18.2081 122.371 18.6305 122.565 19.42C122.884 20.908 122.519 23.1152 118.223 25.9158C118.229 25.9397 117.828 25.2147 117.667 24.4272Z" fill="#A7AAB4"/>
</svg>
