<svg width="120" height="33" viewBox="0 0 120 33" fill="none" xmlns="http://www.w3.org/2000/svg">
<path d="M23.7752 14.1395H13.7636C13.5054 14.1395 13.2957 14.3473 13.2957 14.6031V19.4499C13.2957 19.7056 13.5054 19.9137 13.7636 19.9137H17.6692V25.9354C17.6692 25.9354 16.7922 26.2314 14.3677 26.2314C11.5073 26.2314 7.51146 25.1965 7.51146 16.4962C7.51146 7.79403 11.6723 6.64908 15.5786 6.64908C18.96 6.64908 20.4167 7.23862 21.3435 7.52259C21.6348 7.61102 21.9042 7.32386 21.9042 7.0679L23.0211 2.38493C23.0211 2.2653 22.9801 2.1211 22.8422 2.02309C22.4659 1.7573 20.1694 0.484863 14.3677 0.484863C7.68412 0.484863 0.828369 3.30045 0.828369 16.8355C0.828369 30.371 8.67769 32.388 15.2921 32.388C20.7687 32.388 24.091 30.0706 24.091 30.0706C24.228 29.9957 24.2429 29.8063 24.2429 29.7193V14.6031C24.2429 14.3473 24.0335 14.1395 23.7752 14.1395ZM75.3436 2.17908C75.3436 1.92115 75.1372 1.71309 74.8789 1.71309H69.2417C68.9842 1.71309 68.7749 1.92115 68.7749 2.17908C68.7749 2.1803 68.7763 12.9661 68.7763 12.9661H59.9895V2.17908C59.9895 1.92115 59.7821 1.71309 59.5244 1.71309H53.8874C53.6309 1.71309 53.4218 1.92115 53.4218 2.17908V31.387C53.4218 31.6447 53.6309 31.8545 53.8874 31.8545H59.5244C59.7821 31.8545 59.9895 31.6447 59.9895 31.387V18.8937H68.7763C68.7763 18.8937 68.761 31.386 68.761 31.387C68.761 31.6447 68.9701 31.8545 69.2279 31.8545H74.8784C75.1367 31.8545 75.3431 31.6447 75.3436 31.387V2.17908ZM34.3946 6.08409C34.3946 4.07423 32.7672 2.45002 30.7595 2.45002C28.7537 2.45002 27.1251 4.07423 27.1251 6.08409C27.1251 8.09175 28.7537 9.72038 30.7595 9.72038C32.7672 9.72038 34.3946 8.09175 34.3946 6.08409ZM33.9473 25.241V11.7585C33.9473 11.5025 33.7387 11.2932 33.4809 11.2932H27.8616C27.6039 11.2932 27.3732 11.5566 27.3732 11.8125V31.1288C27.3732 31.6965 27.7304 31.8653 28.1928 31.8653H33.2557C33.8111 31.8653 33.9473 31.5953 33.9473 31.1197V25.241ZM96.8885 11.2932H91.2945C91.038 11.2932 90.8291 11.5025 90.8291 11.7602V26.0818C90.8291 26.0818 89.4081 27.1113 87.3909 27.1113C85.374 27.1113 84.8387 26.2051 84.8387 24.2495V11.7602C84.8387 11.5025 84.6303 11.2932 84.3735 11.2932H78.6962C78.4399 11.2932 78.23 11.5025 78.23 11.7602V25.1953C78.23 31.0038 81.4995 32.4248 85.9972 32.4248C89.6869 32.4248 92.6619 30.4064 92.6619 30.4064C92.6619 30.4064 92.8036 31.47 92.8676 31.5963C92.9319 31.7221 93.0988 31.8491 93.2792 31.8491L96.891 31.8333C97.1473 31.8333 97.3571 31.6236 97.3571 31.3671L97.3554 11.7602C97.3554 11.5025 97.1463 11.2932 96.8885 11.2932ZM109.777 27.1224C107.837 27.0639 106.521 26.1921 106.521 26.1921V16.9426C106.521 16.9426 107.819 16.1546 109.412 16.0136C111.427 15.835 113.368 16.4375 113.368 21.1957C113.368 26.2132 112.492 27.2034 109.777 27.1224ZM111.984 10.6659C108.806 10.6659 106.645 12.0695 106.645 12.0695V2.17908C106.645 1.92115 106.437 1.71309 106.18 1.71309H100.527C100.27 1.71309 100.061 1.92115 100.061 2.17908V31.387C100.061 31.6447 100.27 31.8545 100.528 31.8545H104.45C104.627 31.8545 104.76 31.7643 104.859 31.6064C104.957 31.4494 105.097 30.2597 105.097 30.2597C105.097 30.2597 107.409 32.4288 111.785 32.4288C116.922 32.4288 119.868 29.8485 119.868 20.8454C119.868 11.8423 115.163 10.6659 111.984 10.6659ZM50.1717 11.2431H45.9431C45.9431 11.2431 45.9367 5.71292 45.9367 5.7117C45.9367 5.50241 45.8277 5.39776 45.5834 5.39776H39.8209C39.5969 5.39776 39.4766 5.49528 39.4766 5.7085V11.4247C39.4766 11.4247 36.5889 12.1149 36.3937 12.1707C36.1992 12.2264 36.056 12.404 36.056 12.6158V16.2079C36.056 16.4663 36.2644 16.6746 36.5222 16.6746H39.4766V25.3159C39.4766 31.7343 44.0234 32.3649 47.0917 32.3649C48.4936 32.3649 50.1707 31.9191 50.4475 31.8179C50.615 31.7569 50.7122 31.5852 50.7122 31.399L50.717 27.4476C50.717 27.1899 50.4972 26.9814 50.2496 26.9814C50.0032 26.9814 49.3728 27.0806 48.7239 27.0806C46.6469 27.0806 45.9431 26.1243 45.9431 24.8865C45.9431 23.6497 45.9429 16.6746 45.9429 16.6746H50.1717C50.4294 16.6746 50.6381 16.4663 50.6381 16.2079V11.7086C50.6381 11.4509 50.4294 11.2431 50.1717 11.2431Z" fill="#A7AAB4"/>
</svg>
