<svg width="130" height="33" viewBox="0 0 130 33" fill="none" xmlns="http://www.w3.org/2000/svg">
<path d="M41.676 25.8067L43.2902 22.1551C45.0345 23.423 47.3515 24.0823 49.6426 24.0823C51.3348 24.0823 52.4022 23.4483 52.4022 22.4847C52.3762 19.7967 42.2748 21.9015 42.1967 15.1562C42.1707 11.7328 45.2948 9.09554 49.7207 9.09554C52.3502 9.09554 54.9796 9.7295 56.8541 11.1749L55.3441 14.9026C53.6258 13.8375 51.491 13.0768 49.4603 13.0768C48.0805 13.0768 47.1693 13.7108 47.1693 14.5222C47.1953 17.1595 57.3748 15.7141 57.4789 22.1551C57.4789 25.6545 54.4329 28.1143 50.0591 28.1143C46.8569 28.1143 43.915 27.3789 41.676 25.8067ZM103.612 20.8364L108.064 23.2455C106.398 26.1617 103.221 28.1143 99.5506 28.1143C94.1615 28.1143 89.7877 23.8541 89.7877 18.6049C89.7877 13.3557 94.1615 9.09554 99.5506 9.09554C103.195 9.09554 106.398 11.0735 108.064 13.9643L103.612 16.3734C102.805 15.004 101.295 14.0658 99.5506 14.0658C96.9732 14.0658 94.8905 16.0944 94.8905 18.6049C94.8905 21.1154 96.9732 23.144 99.5506 23.144C101.295 23.144 102.805 22.2058 103.612 20.8364ZM59.7179 1.20911H65.2893V27.7593H59.7179V1.20911ZM110.251 1.20911H115.822V16.8045L122.123 9.47591H128.944L121.159 18.3006L129.568 27.7593H122.435L115.822 19.7967V27.7593H110.251V1.20911ZM81.8472 20.8872V16.3987C81.0401 15.0801 79.3739 14.0658 77.4994 14.0658C74.922 14.0658 72.8393 16.0944 72.8393 18.6049C72.8393 21.1154 74.922 23.144 77.4994 23.144C79.3739 23.144 81.0401 22.1804 81.8472 20.8872ZM81.8472 9.47591H87.4186V27.7339H81.8472V25.5784C80.936 27.0746 78.671 28.1143 76.3019 28.1143C71.4074 28.1143 67.5543 23.8541 67.5543 18.5795C67.5543 13.305 71.4074 9.09554 76.3019 9.09554C78.671 9.09554 80.936 10.1352 81.8472 11.6314V9.47591Z" fill="#A7AAB4"/>
<path d="M7.23247 20.8618C7.23247 22.7129 5.69644 24.2091 3.79592 24.2091C1.89541 24.2091 0.359375 22.7129 0.359375 20.8618C0.359375 19.0106 1.89541 17.5145 3.79592 17.5145H7.23247V20.8618ZM8.95075 20.8618C8.95075 19.0106 10.4868 17.5145 12.3873 17.5145C14.2878 17.5145 15.8238 19.0106 15.8238 20.8618V29.23C15.8238 31.0812 14.2878 32.5773 12.3873 32.5773C10.4868 32.5773 8.95075 31.0812 8.95075 29.23V20.8618Z" fill="#A7AAB4"/>
<path d="M12.3872 7.42189C10.4867 7.42189 8.95066 5.92575 8.95066 4.07459C8.95066 2.22343 10.4867 0.727295 12.3872 0.727295C14.2877 0.727295 15.8238 2.22343 15.8238 4.07459V7.42189H12.3872ZM12.3872 9.12089C14.2877 9.12089 15.8238 10.617 15.8238 12.4682C15.8238 14.3193 14.2877 15.8155 12.3872 15.8155H3.7698C1.86929 15.8155 0.333252 14.3193 0.333252 12.4682C0.333252 10.617 1.86929 9.12089 3.7698 9.12089H12.3872Z" fill="#A7AAB4"/>
<path d="M26.1595 12.4682C26.1595 10.617 27.6955 9.12089 29.596 9.12089C31.4965 9.12089 33.0326 10.617 33.0326 12.4682C33.0326 14.3193 31.4965 15.8155 29.596 15.8155H26.1595V12.4682ZM24.4412 12.4682C24.4412 14.3193 22.9052 15.8155 21.0047 15.8155C19.1041 15.8155 17.5681 14.3193 17.5681 12.4682V4.07459C17.5681 2.22343 19.1041 0.727295 21.0047 0.727295C22.9052 0.727295 24.4412 2.22343 24.4412 4.07459V12.4682Z" fill="#A7AAB4"/>
<path d="M21.0047 25.8827C22.9052 25.8827 24.4412 27.3788 24.4412 29.23C24.4412 31.0812 22.9052 32.5773 21.0047 32.5773C19.1041 32.5773 17.5681 31.0812 17.5681 29.23V25.8827H21.0047ZM21.0047 24.2091C19.1041 24.2091 17.5681 22.7129 17.5681 20.8618C17.5681 19.0106 19.1041 17.5145 21.0047 17.5145H29.6221C31.5226 17.5145 33.0586 19.0106 33.0586 20.8618C33.0586 22.7129 31.5226 24.2091 29.6221 24.2091H21.0047Z" fill="#A7AAB4"/>
</svg>
