<svg width="107" height="32" viewBox="0 0 107 32" fill="none" xmlns="http://www.w3.org/2000/svg">
<path d="M15.9876 0C24.8128 0 31.9752 7.1232 31.9752 15.9C31.9752 24.6768 24.8128 31.8 15.9876 31.8C7.16245 31.8 0 24.6768 0 15.9C0 7.1232 7.16245 0 15.9876 0ZM15.9876 4.1976C9.46467 4.1976 4.22073 9.4128 4.22073 15.9C4.22073 22.3872 9.46467 27.6024 15.9876 27.6024C22.5106 27.6024 27.7545 22.3872 27.7545 15.9C27.7545 9.4128 22.5106 4.1976 15.9876 4.1976ZM98.164 10.7484C102.896 10.7484 106.286 14.1828 106.286 18.2532V18.3168C106.286 22.3872 102.896 25.8852 98.1001 25.8852C93.3677 25.8852 89.9783 22.4508 89.9783 18.3804V18.3168C89.9783 14.2464 93.3677 10.7484 98.164 10.7484ZM43.1026 6.2964C43.2945 6.2328 43.4863 6.4236 43.4863 6.5508V11.13H51.9918C52.1836 11.13 52.3115 11.2572 52.3755 11.3844L53.0789 13.992L53.7184 16.5996L53.7824 16.7268L53.8463 16.4724L55.4451 11.1936C55.509 11.0664 55.7009 10.9392 55.8288 10.9392H60.0495C60.2414 10.9392 60.3693 11.0664 60.4332 11.1936L62.0959 16.854L62.1599 16.5996L63.5668 11.3208C63.6307 11.1936 63.8226 11.0664 63.9505 11.0664H74.8221C74.95 11.0664 75.0779 11.1936 75.0779 11.3844V25.2492C75.0779 25.3764 74.95 25.5036 74.8221 25.5036H69.3863C69.2584 25.5036 69.1305 25.3764 69.1305 25.2492V11.8932L65.0377 25.2492C64.9737 25.3764 64.7819 25.5036 64.6539 25.5036H60.1774C59.9856 25.5036 59.8577 25.3764 59.7937 25.2492L58.8984 22.4508L57.9392 19.398L56.0206 25.3128C55.9567 25.44 55.7648 25.5672 55.6369 25.5672H51.1604C50.9685 25.5672 50.8406 25.44 50.7767 25.3128L46.7478 12.0204V15.4548C46.7478 15.582 46.6199 15.7092 46.492 15.7092H43.4224V19.3344C43.4224 20.4156 43.934 20.7972 44.8932 20.7972C45.4049 20.7972 45.8525 20.7336 46.4281 20.4792C46.556 20.4792 46.7478 20.5428 46.7478 20.7336V24.9312C45.7886 25.44 44.3816 25.758 42.9108 25.758C39.3935 25.758 37.475 24.1044 37.475 20.6064V15.6456H36.0681C35.9402 15.6456 35.8123 15.5184 35.8123 15.3912V11.3208C35.8123 11.1936 35.9402 11.0664 36.0681 11.0664H37.475V8.2044C37.475 8.0772 37.5389 8.0136 37.7308 7.95L43.1026 6.2964ZM81.9845 6.2328C82.1124 6.2328 82.2403 6.36 82.2403 6.4872V25.2492C82.2403 25.3764 82.1124 25.5036 81.9845 25.5036H76.5487C76.4208 25.5036 76.2929 25.3764 76.2929 25.2492V6.4872C76.2929 6.36 76.4208 6.2328 76.5487 6.2328H81.9845ZM89.147 11.0664C89.2749 11.0664 89.4028 11.1936 89.4028 11.3844V25.2492C89.4028 25.3764 89.2749 25.5036 89.147 25.5036H83.7112C83.5833 25.5036 83.4554 25.3764 83.4554 25.2492V11.3208C83.4554 11.1936 83.5833 11.0664 83.7112 11.0664H89.147ZM19.9526 16.536C21.7891 16.536 23.278 18.0167 23.278 19.8432C23.278 21.6697 21.7891 23.1504 19.9526 23.1504C18.116 23.1504 16.6271 21.6697 16.6271 19.8432C16.6271 18.0167 18.116 16.536 19.9526 16.536ZM12.0227 16.536C13.8593 16.536 15.3481 18.0167 15.3481 19.8432C15.3481 21.6697 13.8593 23.1504 12.0227 23.1504C10.1861 23.1504 8.69727 21.6697 8.69727 19.8432C8.69727 18.0167 10.1861 16.536 12.0227 16.536ZM98.1001 15.7092C96.7571 15.7092 95.7978 16.7904 95.7978 18.1896V18.2532C95.7978 19.6524 96.8211 20.7972 98.164 20.7972C99.507 20.7972 100.466 19.716 100.466 18.3168C100.466 16.854 99.443 15.7092 98.1001 15.7092ZM19.9526 8.6496C21.7891 8.6496 23.278 10.1303 23.278 11.9568C23.278 13.7833 21.7891 15.264 19.9526 15.264C18.116 15.264 16.6271 13.7833 16.6271 11.9568C16.6271 10.1303 18.116 8.6496 19.9526 8.6496ZM12.0227 8.6496C13.8593 8.6496 15.3481 10.1303 15.3481 11.9568C15.3481 13.7833 13.8593 15.264 12.0227 15.264C10.1861 15.264 8.69727 13.7833 8.69727 11.9568C8.69727 10.1303 10.1861 8.6496 12.0227 8.6496ZM74.886 6.2328C75.0779 6.2328 75.2058 6.36 75.1418 6.4872V9.7308C75.1418 9.858 75.0139 9.9852 74.886 9.9852H69.2584C69.1305 9.9852 69.0026 9.858 69.0026 9.7308V6.4872C69.0026 6.36 69.1305 6.2328 69.2584 6.2328H74.886ZM89.2109 6.2328C89.4028 6.2328 89.5307 6.36 89.4667 6.4872V9.7308C89.4667 9.858 89.3388 9.9852 89.2109 9.9852H83.5833C83.4554 9.9852 83.3275 9.858 83.3275 9.7308V6.4872C83.3275 6.36 83.4554 6.2328 83.5833 6.2328H89.2109Z" fill="#A7AAB4"/>
</svg>
