<svg width="40" height="40" viewBox="0 0 40 40" fill="none" xmlns="http://www.w3.org/2000/svg">
<rect y="40" width="40" height="40" rx="2" transform="rotate(-90 0 40)" fill="#FE390C"/>
<path d="M13.3334 19.7714C13.3334 19.455 13.5685 19.1935 13.8736 19.1521L13.9584 19.1464L24.945 19.1469L20.9759 15.1939C20.7313 14.9504 20.7304 14.5547 20.974 14.31C21.1954 14.0877 21.5426 14.0668 21.7876 14.2478L21.8579 14.3081L26.8995 19.3281C26.9318 19.3602 26.9598 19.395 26.9835 19.4317C26.9903 19.4427 26.9971 19.454 27.0036 19.4656C27.0095 19.4754 27.0149 19.4857 27.02 19.4961C27.027 19.5112 27.0339 19.5267 27.0402 19.5427C27.0453 19.5549 27.0495 19.5669 27.0534 19.5789C27.058 19.5938 27.0625 19.6097 27.0663 19.6258C27.0692 19.6371 27.0715 19.6479 27.0734 19.6588C27.0762 19.675 27.0786 19.6917 27.0803 19.7087C27.0817 19.7216 27.0826 19.7344 27.0831 19.7473C27.0832 19.7551 27.0834 19.7632 27.0834 19.7714L27.0831 19.7956C27.0826 19.8078 27.0817 19.8201 27.0805 19.8323L27.0834 19.7714C27.0834 19.8108 27.0797 19.8494 27.0727 19.8868C27.0711 19.8957 27.0692 19.9049 27.067 19.9141C27.0626 19.9329 27.0575 19.951 27.0516 19.9688C27.0487 19.9776 27.0453 19.987 27.0417 19.9964C27.0344 20.0152 27.0264 20.0331 27.0177 20.0506C27.0136 20.0588 27.0091 20.0674 27.0043 20.0759C26.9965 20.0898 26.9885 20.103 26.98 20.1158C26.974 20.1249 26.9673 20.1344 26.9604 20.1437L26.955 20.1509C26.9381 20.1729 26.9199 20.1938 26.9003 20.2133L26.8996 20.2139L21.8579 25.2347C21.6133 25.4783 21.2176 25.4775 20.974 25.2329C20.7526 25.0105 20.7331 24.6633 20.9152 24.419L20.9758 24.349L24.9434 20.3969L13.9584 20.3964C13.6132 20.3964 13.3334 20.1165 13.3334 19.7714Z" fill="white"/>
</svg>
