<svg width="40" height="41" viewBox="0 0 40 41" fill="none" xmlns="http://www.w3.org/2000/svg">
<rect width="39.8788" height="40" rx="2" transform="matrix(0 -1 -1 0 40 40.7151)" fill="#FE390C"/>
<path d="M26.6666 20.5478C26.6666 20.2323 26.4315 19.9716 26.1264 19.9303L26.0416 19.9247L15.055 19.9251L19.0241 15.9842C19.2687 15.7414 19.2696 15.3468 19.026 15.103C18.8046 14.8813 18.4574 14.8604 18.2124 15.0409L18.1421 15.1011L13.1005 20.1059C13.0682 20.1379 13.0402 20.1725 13.0165 20.2091C13.0097 20.2201 13.0029 20.2314 12.9964 20.2429C12.9905 20.2527 12.9851 20.2629 12.98 20.2733C12.973 20.2883 12.9661 20.3039 12.9598 20.3197C12.9547 20.332 12.9505 20.3439 12.9466 20.3558C12.942 20.3707 12.9375 20.3866 12.9337 20.4026C12.9308 20.4139 12.9285 20.4247 12.9266 20.4355C12.9238 20.4517 12.9214 20.4684 12.9197 20.4853C12.9183 20.4982 12.9174 20.5109 12.9169 20.5237C12.9168 20.5315 12.9166 20.5396 12.9166 20.5478L12.9169 20.5719C12.9174 20.5841 12.9183 20.5963 12.9195 20.6085L12.9166 20.5478C12.9166 20.5871 12.9203 20.6255 12.9273 20.6628C12.9289 20.6718 12.9308 20.6809 12.933 20.69C12.9374 20.7088 12.9425 20.7268 12.9484 20.7445C12.9513 20.7533 12.9547 20.7627 12.9583 20.7721C12.9656 20.7908 12.9736 20.8087 12.9823 20.8261C12.9864 20.8343 12.9909 20.8429 12.9957 20.8513C13.0035 20.8652 13.0115 20.8783 13.02 20.8912C13.026 20.9002 13.0327 20.9097 13.0396 20.919L13.045 20.9261C13.0619 20.9481 13.0801 20.9689 13.0997 20.9884L13.1004 20.9889L18.1421 25.9946C18.3867 26.2374 18.7824 26.2366 19.026 25.9927C19.2474 25.7711 19.2669 25.4248 19.0848 25.1813L19.0242 25.1115L15.0566 21.1714L26.0416 21.1709C26.3868 21.1709 26.6666 20.8919 26.6666 20.5478Z" fill="white"/>
</svg>
