<svg width="16" height="17" viewBox="0 0 16 17" fill="none" xmlns="http://www.w3.org/2000/svg">
<path d="M8.00004 10.7395C8.08778 10.74 8.17476 10.7231 8.25598 10.69C8.33721 10.6568 8.41108 10.6079 8.47338 10.5461L12.4734 6.54611C12.5989 6.42058 12.6694 6.25031 12.6694 6.07278C12.6694 5.89524 12.5989 5.72498 12.4734 5.59944C12.3478 5.47391 12.1776 5.40338 12 5.40338C11.8225 5.40338 11.6522 5.47391 11.5267 5.59944L8.00004 9.13279L4.47338 5.60611C4.34585 5.49689 4.1818 5.43982 4.01401 5.4463C3.84623 5.45278 3.68707 5.52234 3.56834 5.64107C3.44961 5.7598 3.38005 5.91896 3.37357 6.08674C3.36709 6.25453 3.42416 6.41858 3.53338 6.54611L7.53338 10.5461C7.65755 10.6693 7.82515 10.7387 8.00004 10.7395Z" fill="#100D22"/>
</svg>
