<svg width="16" height="17" viewBox="0 0 16 17" fill="none" xmlns="http://www.w3.org/2000/svg">
<path d="M8.00004 5.40605C8.08778 5.40554 8.17476 5.42236 8.25598 5.45554C8.33721 5.48871 8.41108 5.5376 8.47338 5.59938L12.4734 9.5994C12.5989 9.72493 12.6694 9.8952 12.6694 10.0727C12.6694 10.2503 12.5989 10.4205 12.4734 10.5461C12.3478 10.6716 12.1776 10.7421 12 10.7421C11.8225 10.7421 11.6522 10.6716 11.5267 10.5461L8.00004 7.01272L4.47338 10.5394C4.34585 10.6486 4.1818 10.7057 4.01401 10.6992C3.84623 10.6927 3.68707 10.6232 3.56834 10.5044C3.44961 10.3857 3.38005 10.2266 3.37357 10.0588C3.36709 9.89098 3.42416 9.72693 3.53338 9.5994L7.53338 5.59938C7.65755 5.47622 7.82515 5.40679 8.00004 5.40605Z" fill="#100D22"/>
</svg>
