<svg width="1440" height="547" viewBox="0 0 1440 547" fill="none" xmlns="http://www.w3.org/2000/svg">
<rect width="1440" height="547" fill="#111214"/>
<mask id="mask0_817_24" style="mask-type:alpha" maskUnits="userSpaceOnUse" x="0" y="0" width="1440" height="547">
<rect width="1440" height="547" fill="#111214"/>
</mask>
<g mask="url(#mask0_817_24)">
<rect x="-214.126" y="646.871" width="1653.56" height="305.807" transform="rotate(-38.8055 -214.126 646.871)" fill="white" fill-opacity="0.02"/>
<rect x="-93.2358" y="795.469" width="1791.45" height="341.433" transform="rotate(-38.8055 -93.2358 795.469)" fill="white" fill-opacity="0.03"/>
</g>
<mask id="mask1_817_24" style="mask-type:alpha" maskUnits="userSpaceOnUse" x="0" y="0" width="1440" height="547">
<rect width="1440" height="547" fill="#111214"/>
</mask>
<g mask="url(#mask1_817_24)">
<g filter="url(#filter0_f_817_24)">
<rect y="462.996" width="1440" height="124.377" fill="url(#paint0_linear_817_24)"/>
</g>
</g>
<path d="M120.344 432V157H193C208.208 157 220.24 160.385 229.094 167.156C238.052 173.927 244.458 183.562 248.312 196.062C252.167 208.562 254.094 223.458 254.094 240.75C254.094 257.417 252.479 271.948 249.25 284.344C246.021 296.635 240.24 306.167 231.906 312.938C223.677 319.708 211.958 323.094 196.75 323.094H174.406V432H120.344ZM174.406 273.719H177.531C187.74 273.719 193.99 270.854 196.281 265.125C198.573 259.396 199.719 250.958 199.719 239.812C199.719 229.396 198.573 221.375 196.281 215.75C194.094 210.021 188.833 207.156 180.5 207.156H174.406V273.719ZM337.219 434.5C315.24 434.5 298.417 427.885 286.75 414.656C275.188 401.323 269.406 382.104 269.406 357V226.375C269.406 202.833 275.135 184.969 286.594 172.781C298.156 160.594 315.031 154.5 337.219 154.5C359.406 154.5 376.229 160.594 387.688 172.781C399.25 184.969 405.031 202.833 405.031 226.375V357C405.031 382.104 399.198 401.323 387.531 414.656C375.969 427.885 359.198 434.5 337.219 434.5ZM337.688 383.875C346.021 383.875 350.188 375.802 350.188 359.656V225.438C350.188 211.896 346.125 205.125 338 205.125C328.833 205.125 324.25 212.052 324.25 225.906V359.969C324.25 368.51 325.292 374.656 327.375 378.406C329.458 382.052 332.896 383.875 337.688 383.875ZM427.219 432V157H511.594C525.656 157 536.281 160.229 543.469 166.688C550.656 173.042 555.448 182 557.844 193.562C560.344 205.021 561.594 218.51 561.594 234.031C561.594 249.031 559.667 261.01 555.812 269.969C552.062 278.927 544.927 285.125 534.406 288.562C543.052 290.333 549.094 294.656 552.531 301.531C556.073 308.302 557.844 317.104 557.844 327.938V432H503.625V324.344C503.625 316.323 501.958 311.375 498.625 309.5C495.396 307.521 490.135 306.531 482.844 306.531V432H427.219ZM483.156 258.875H496.438C504.042 258.875 507.844 250.594 507.844 234.031C507.844 223.302 507.01 216.271 505.344 212.938C503.677 209.604 500.552 207.938 495.969 207.938H483.156V258.875ZM603.312 432V209.812H570.656V157H690.969V209.812H658.312V432H603.312ZM706.281 432V157H816.281V210.594H761.594V254.344H813.469V307.312H761.594V432H706.281ZM899.719 434.5C877.74 434.5 860.917 427.885 849.25 414.656C837.688 401.323 831.906 382.104 831.906 357V226.375C831.906 202.833 837.635 184.969 849.094 172.781C860.656 160.594 877.531 154.5 899.719 154.5C921.906 154.5 938.729 160.594 950.188 172.781C961.75 184.969 967.531 202.833 967.531 226.375V357C967.531 382.104 961.698 401.323 950.031 414.656C938.469 427.885 921.698 434.5 899.719 434.5ZM900.188 383.875C908.521 383.875 912.688 375.802 912.688 359.656V225.438C912.688 211.896 908.625 205.125 900.5 205.125C891.333 205.125 886.75 212.052 886.75 225.906V359.969C886.75 368.51 887.792 374.656 889.875 378.406C891.958 382.052 895.396 383.875 900.188 383.875ZM989.719 432V157H1044.72V385.125H1101.28V432H989.719ZM1114.41 432V157H1167.53V432H1114.41ZM1255.03 434.5C1233.05 434.5 1216.23 427.885 1204.56 414.656C1193 401.323 1187.22 382.104 1187.22 357V226.375C1187.22 202.833 1192.95 184.969 1204.41 172.781C1215.97 160.594 1232.84 154.5 1255.03 154.5C1277.22 154.5 1294.04 160.594 1305.5 172.781C1317.06 184.969 1322.84 202.833 1322.84 226.375V357C1322.84 382.104 1317.01 401.323 1305.34 414.656C1293.78 427.885 1277.01 434.5 1255.03 434.5ZM1255.5 383.875C1263.83 383.875 1268 375.802 1268 359.656V225.438C1268 211.896 1263.94 205.125 1255.81 205.125C1246.65 205.125 1242.06 212.052 1242.06 225.906V359.969C1242.06 368.51 1243.1 374.656 1245.19 378.406C1247.27 382.052 1250.71 383.875 1255.5 383.875Z" fill="white" fill-opacity="0.02"/>
<defs>
<filter id="filter0_f_817_24" x="-95" y="367.996" width="1630" height="314.377" filterUnits="userSpaceOnUse" color-interpolation-filters="sRGB">
<feFlood flood-opacity="0" result="BackgroundImageFix"/>
<feBlend mode="normal" in="SourceGraphic" in2="BackgroundImageFix" result="shape"/>
<feGaussianBlur stdDeviation="47.5" result="effect1_foregroundBlur_817_24"/>
</filter>
<linearGradient id="paint0_linear_817_24" x1="797" y1="493.909" x2="790.225" y2="555.462" gradientUnits="userSpaceOnUse">
<stop stop-color="#111214"/>
<stop offset="1" stop-color="#111214"/>
</linearGradient>
</defs>
</svg>
